<svg width="900" height="300" viewBox="0 0 900 300" fill="none" xmlns="http://www.w3.org/2000/svg">
<rect width="900" height="300" fill="url(#paint0_linear)"/>
<path d="M153.72 141.18C153.72 121.38 137.52 105.18 117.54 105.18C106.74 105.18 97.02 109.86 90.36 117.6C83.7 109.86 73.98 105.18 63.18 105.18C43.2 105.18 27 121.38 27 141.18V186.54C27 191.58 30.96 195.54 36 195.54C40.86 195.54 44.82 191.58 44.82 186.54V141.18C44.82 131.1 53.1 123 63.18 123C73.26 123 81.36 131.1 81.36 141.18V186.54C81.36 191.58 85.5 195.54 90.36 195.54C95.22 195.54 99.18 191.58 99.18 186.54V141.18C99.18 131.1 107.46 123 117.54 123C127.62 123 135.9 131.1 135.9 141.18C135.9 141.54 135.9 141.72 135.9 141.9C135.9 142.26 135.9 142.44 135.9 142.8V186.54C135.9 191.58 139.86 195.54 144.72 195.54C149.58 195.54 153.72 191.58 153.72 186.54V142.8C153.72 142.44 153.72 142.418 153.72 141.949C153.72 141.57 153.72 141.54 153.72 141.18Z" fill="url(#paint1_linear)"/>
<path d="M209.535 104.82C184.515 104.82 164.355 124.98 164.355 150C164.355 174.84 184.515 195.18 209.535 195.18C216.195 195.18 225.375 195.36 237.255 187.44C241.395 184.74 243.735 180.06 241.575 175.56C239.415 171.24 233.835 168.72 229.695 171.42C221.055 177 213.675 177.36 209.535 177.36C197.475 177.36 187.395 169.62 183.615 158.82H245.715C250.755 158.82 254.715 154.86 254.715 150C254.715 120.66 231.315 104.82 209.535 104.82ZM209.535 122.64C220.335 122.64 231.855 128.4 235.635 141H183.615C187.395 130.38 197.475 122.64 209.535 122.64Z" fill="url(#paint2_linear)"/>
<path d="M355.874 150C355.874 124.98 335.534 104.82 310.694 104.82C285.674 104.82 265.514 124.98 265.514 150C265.514 174.84 285.674 195.18 310.694 195.18C320.954 195.18 330.314 191.58 338.054 185.82C338.054 195.36 338.054 195.54 338.054 195.72C337.694 210.48 325.634 222.54 310.694 222.54C300.074 222.54 290.714 216.6 286.034 207.06C283.874 202.74 278.474 200.94 274.154 203.1C269.654 205.26 267.854 210.48 270.014 214.98C277.754 230.64 293.234 240.36 310.694 240.36C335.534 240.36 355.874 220.02 355.874 195.18C355.874 150 355.874 150 355.874 150ZM310.694 177.36C295.574 177.36 283.334 164.94 283.334 150C283.334 134.88 295.574 122.64 310.694 122.64C325.634 122.64 338.054 134.88 338.054 150C338.054 164.94 325.634 177.36 310.694 177.36Z" fill="url(#paint3_linear)"/>
<path d="M412.124 105.18C386.744 105.18 366.584 125.34 366.584 150.72C366.584 176.1 386.744 195 412.124 195C422.384 195 431.024 192.48 438.764 186C438.764 191.22 443.804 195 447.404 195C452.624 195 456.404 191.22 456.404 186V150.72C456.404 125.34 437.504 105.18 412.124 105.18ZM412.124 177.36C397.004 177.36 384.224 165.84 384.224 150.72C384.224 135.6 397.004 122.82 412.124 122.82C427.244 122.82 438.764 135.6 438.764 150.72C438.764 165.84 427.244 177.36 412.124 177.36Z" fill="url(#paint4_linear)"/>
<path d="M580.431 105.72C575.751 103.92 570.711 106.26 568.911 110.94L550.011 161.16L531.291 111.3C530.571 108.78 528.591 106.62 526.071 105.72C525.891 105.72 525.891 105.72 525.711 105.54C525.711 105.54 525.531 105.54 525.351 105.54C525.171 105.36 525.171 105.36 524.991 105.36C524.991 105.36 524.991 105.36 524.811 105.36H524.631C524.451 105.36 524.451 105.18 524.451 105.18C524.271 105.18 524.271 105.18 524.091 105.18C524.091 105.18 524.091 105.18 523.911 105.18C523.911 105.18 523.911 105.18 523.731 105.18H523.551C523.371 105.18 523.371 105.18 523.371 105.18C523.191 105.18 523.191 105.18 523.011 105.18C523.011 105.18 523.011 105.18 522.831 105.18C522.831 105.18 522.651 105.18 522.471 105.18C521.571 105.18 520.671 105.36 519.771 105.72C517.071 106.62 515.271 108.78 514.371 111.3L495.651 161.16L476.751 110.94C475.131 106.26 469.911 103.92 465.411 105.72C460.731 107.34 458.391 112.56 460.191 117.24L487.191 189.24C488.451 192.84 491.871 195.18 495.651 195.18C499.431 195.18 502.851 192.66 504.291 189.24L522.831 139.38L541.551 189.24C542.811 192.84 546.231 195.18 550.011 195.18C553.791 195.18 557.211 192.66 558.651 189.24L585.651 117.24C587.271 112.56 584.931 107.34 580.431 105.72Z" fill="url(#paint5_linear)"/>
<path d="M634.483 195.18C659.503 195.18 679.663 174.84 679.663 150C679.663 124.98 659.503 104.82 634.483 104.82C609.643 104.82 589.303 124.98 589.303 150C589.303 174.84 609.643 195.18 634.483 195.18ZM634.483 122.64C649.603 122.64 661.843 134.88 661.843 150C661.843 164.94 649.603 177.36 634.483 177.36C619.363 177.36 607.123 164.94 607.123 150C607.123 134.88 619.363 122.64 634.483 122.64Z" fill="url(#paint6_linear)"/>
<path d="M735.382 105C710.542 105 690.202 125.16 690.202 150.18V186.36C690.202 191.22 694.162 195.36 699.202 195.36C704.062 195.36 708.022 191.22 708.022 186.36V150.18C708.022 135.06 720.262 122.82 735.382 122.82C740.422 122.82 744.382 118.68 744.382 113.82C744.382 108.96 740.422 105 735.382 105Z" fill="url(#paint7_linear)"/>
<path d="M764.262 195.36C769.122 195.36 773.082 191.4 773.082 186.36V69.18C773.082 64.32 769.122 60.36 764.262 60.36C759.222 60.36 755.262 64.32 755.262 69.18V186.36C755.262 191.4 759.222 195.36 764.262 195.36Z" fill="url(#paint8_linear)"/>
<path d="M828.726 104.46C803.706 104.46 783.546 124.62 783.546 149.64C783.546 174.48 803.706 194.82 828.726 194.82C853.566 194.82 873.906 174.48 873.906 149.64V149.46V68.82C873.906 63.96 869.946 60 864.906 60C860.046 60 856.086 63.96 856.086 68.82V113.64C848.526 107.88 838.986 104.46 828.726 104.46ZM828.726 177C813.606 177 801.366 164.58 801.366 149.64C801.366 134.52 813.606 122.28 828.726 122.28C843.846 122.28 856.086 134.52 856.086 149.46V149.64C856.086 164.76 843.846 177 828.726 177Z" fill="url(#paint9_linear)"/>
<defs>
<linearGradient id="paint0_linear" x1="0" y1="150" x2="900" y2="150" gradientUnits="userSpaceOnUse">
<stop stop-color="#667EEA"/>
<stop offset="1" stop-color="#764BA2"/>
</linearGradient>
<linearGradient id="paint1_linear" x1="27" y1="150.18" x2="873.906" y2="150.18" gradientUnits="userSpaceOnUse">
<stop stop-color="#FDFBFB"/>
<stop offset="1" stop-color="#EBEDEE"/>
</linearGradient>
<linearGradient id="paint2_linear" x1="27" y1="150.18" x2="873.906" y2="150.18" gradientUnits="userSpaceOnUse">
<stop stop-color="#FDFBFB"/>
<stop offset="1" stop-color="#EBEDEE"/>
</linearGradient>
<linearGradient id="paint3_linear" x1="27" y1="150.18" x2="873.906" y2="150.18" gradientUnits="userSpaceOnUse">
<stop stop-color="#FDFBFB"/>
<stop offset="1" stop-color="#EBEDEE"/>
</linearGradient>
<linearGradient id="paint4_linear" x1="27" y1="150.18" x2="873.906" y2="150.18" gradientUnits="userSpaceOnUse">
<stop stop-color="#FDFBFB"/>
<stop offset="1" stop-color="#EBEDEE"/>
</linearGradient>
<linearGradient id="paint5_linear" x1="27" y1="150.18" x2="873.906" y2="150.18" gradientUnits="userSpaceOnUse">
<stop stop-color="#FDFBFB"/>
<stop offset="1" stop-color="#EBEDEE"/>
</linearGradient>
<linearGradient id="paint6_linear" x1="27" y1="150.18" x2="873.906" y2="150.18" gradientUnits="userSpaceOnUse">
<stop stop-color="#FDFBFB"/>
<stop offset="1" stop-color="#EBEDEE"/>
</linearGradient>
<linearGradient id="paint7_linear" x1="27" y1="150.18" x2="873.906" y2="150.18" gradientUnits="userSpaceOnUse">
<stop stop-color="#FDFBFB"/>
<stop offset="1" stop-color="#EBEDEE"/>
</linearGradient>
<linearGradient id="paint8_linear" x1="27" y1="150.18" x2="873.906" y2="150.18" gradientUnits="userSpaceOnUse">
<stop stop-color="#FDFBFB"/>
<stop offset="1" stop-color="#EBEDEE"/>
</linearGradient>
<linearGradient id="paint9_linear" x1="27" y1="150.18" x2="873.906" y2="150.18" gradientUnits="userSpaceOnUse">
<stop stop-color="#FDFBFB"/>
<stop offset="1" stop-color="#EBEDEE"/>
</linearGradient>
</defs>
</svg>
